<svg width="25" height="25" viewBox="0 0 25 25" fill="none" xmlns="http://www.w3.org/2000/svg">
<path d="M25 15.5084L21.9918 9.49163L18.9835 15.5084H21.0097C19.7343 19.4902 16.004 22.3845 11.6029 22.3845C6.15298 22.3845 1.71848 17.9501 1.71848 12.5C1.71848 7.05004 6.15298 2.61555 11.6029 2.61555C15.8023 2.61555 19.3899 5.25241 20.8185 8.9546L21.8063 6.97856C19.8409 3.35921 16.0049 0.896606 11.6037 0.896606C5.20561 0.896453 0 6.10176 0 12.5C0 18.8978 5.20561 24.1036 11.6036 24.1036C16.9607 24.1036 21.4716 20.4514 22.8009 15.5085H25V15.5084Z" fill="#96162D"/>
</svg>
