<svg width="30" height="30" viewBox="0 0 30 30" fill="none" xmlns="http://www.w3.org/2000/svg">
<path d="M14.2418 14.7871H1.66022C1.1679 14.7871 0.724853 14.4902 0.537261 14.0346C0.351398 13.5795 0.460322 13.0617 0.809139 12.7146L11.2814 2.42223H1.66022C0.990247 2.42223 0.449084 1.87459 0.449084 1.21112C0.449516 0.539427 0.99068 0 1.66022 0H14.2418C14.7333 0 15.1772 0.297809 15.3626 0.753382C15.5494 1.20852 15.4404 1.72677 15.0916 2.07299L4.61933 12.3662H14.2423C14.9101 12.3662 15.4534 12.9112 15.4534 13.5773C15.453 14.2477 14.9079 14.7871 14.2418 14.7871ZM28.3384 17.2751H22.4111L29.1921 10.61C29.5431 10.2612 29.6464 9.74556 29.4644 9.29042C29.2786 8.83528 28.8308 8.53531 28.3389 8.53531H19.4486C18.7838 8.53531 18.2374 9.07776 18.2374 9.74599C18.2374 10.4095 18.7838 10.9571 19.4486 10.9571H25.3793L18.5979 17.6204C18.2444 17.9705 18.1406 18.484 18.3269 18.9405C18.5145 19.3995 18.9563 19.6973 19.4486 19.6973H28.338C29.0075 19.6973 29.5491 19.1531 29.5491 18.4862C29.5491 17.8188 29.0075 17.2751 28.3384 17.2751ZM14.668 27.5782H10.5337L15.5174 22.6823C15.8692 22.3369 15.9755 21.8139 15.7897 21.3584C15.603 20.9037 15.159 20.6058 14.6676 20.6058H7.57454C6.90587 20.6058 6.36298 21.1496 6.36298 21.817C6.36298 22.4835 6.90587 23.0281 7.57454 23.0281H11.7089L6.72433 27.9231C6.37335 28.2732 6.26616 28.7867 6.45332 29.2432C6.63961 29.6996 7.08266 30 7.57498 30H14.6685C15.3371 30 15.8792 29.4558 15.8792 28.7889C15.8792 28.1219 15.3419 27.5782 14.668 27.5782Z" fill="white"/>
</svg>
