<svg width="22" height="30" viewBox="0 0 22 30" fill="none" xmlns="http://www.w3.org/2000/svg">
<path d="M13.39 22.5068C15.0083 23.061 16.4372 23.414 18.4903 24.0449C17.7016 34.0109 8.27755 30.0531 13.39 22.5068ZM21.8042 13.3517C21.6979 10.3594 21.1709 6.43402 16.9726 7.04908C15.0045 7.5627 13.5504 9.7241 12.8664 13.4532C12.4908 15.5035 12.7092 18.3815 13.1523 20.1067C13.5569 21.3224 13.4193 21.2477 13.8541 21.4786C15.537 21.8577 17.2031 22.2774 18.8997 22.7054C20.6233 21.4882 22.0388 15.0264 21.8042 13.3517ZM8.84792 13.1221C9.29065 11.3967 9.50908 8.51871 9.13363 6.46859C8.45023 2.73932 6.99592 0.577576 5.02751 0.0643047C0.829206 -0.55076 0.302141 3.37453 0.195867 6.36709C-0.0387403 8.0414 1.37699 14.5037 3.10072 15.7206C4.79721 15.2926 6.46303 14.8733 8.14649 14.4938C8.58078 14.2632 8.44319 14.3378 8.84792 13.1221ZM3.50958 17.0605C4.29802 27.0264 13.7221 23.0686 8.6097 15.5224C6.99144 16.0766 5.56261 16.4296 3.50958 17.0605Z" fill="#2B5558"/>
</svg>
