<svg width="25" height="25" viewBox="0 0 25 25" fill="none" xmlns="http://www.w3.org/2000/svg">
<path d="M22.8027 0H2.19727C0.985718 0 0 0.985718 0 2.19727V22.8027C0 24.0143 0.985718 25 2.19727 25H22.8027C24.0143 25 25 24.0143 25 22.8027V2.19727C25 0.985718 24.0143 0 22.8027 0ZM21.0932 6.86855L17.2268 12.0123C16.984 12.3356 16.5253 12.4008 16.202 12.1582C15.1258 11.3512 13.8456 10.9245 12.5 10.9245C11.1542 10.9245 9.87415 11.3512 8.79803 12.1582C8.66623 12.257 8.51192 12.3047 8.35915 12.3047C8.13675 12.3047 7.91702 12.2038 7.77302 12.0123L3.90682 6.86855C3.7899 6.7131 3.73974 6.5176 3.76701 6.32515C3.79448 6.13289 3.89729 5.95913 4.05273 5.8424C6.50826 4.00085 9.42936 3.02734 12.5 3.02734C15.5706 3.02734 18.4917 4.00085 20.9473 5.8424C21.1027 5.95913 21.2055 6.1327 21.233 6.32515C21.2603 6.5176 21.2101 6.7131 21.0932 6.86855Z" fill="#96162D"/>
</svg>
