<svg width="30" height="30" viewBox="0 0 30 30" fill="none" xmlns="http://www.w3.org/2000/svg">
<path d="M19.6875 28.125C18.2041 28.125 16.7541 27.6851 15.5207 26.861C14.2874 26.0369 13.3261 24.8656 12.7584 23.4951C12.1907 22.1247 12.0422 20.6167 12.3316 19.1618C12.621 17.707 13.3353 16.3706 14.3842 15.3217C15.4331 14.2728 16.7695 13.5585 18.2243 13.2691C19.6792 12.9797 21.1872 13.1282 22.5576 13.6959C23.9281 14.2636 25.0994 15.2249 25.9235 16.4582C26.7476 17.6916 27.1875 19.1416 27.1875 20.625C27.1875 22.6141 26.3973 24.5218 24.9908 25.9283C23.5843 27.3348 21.6766 28.125 19.6875 28.125ZM19.6875 15C18.575 15 17.4874 15.3299 16.5624 15.948C15.6374 16.5661 14.9164 17.4446 14.4907 18.4724C14.0649 19.5002 13.9535 20.6312 14.1706 21.7224C14.3876 22.8135 14.9234 23.8158 15.71 24.6025C16.4967 25.3891 17.499 25.9249 18.5901 26.1419C19.6813 26.359 20.8123 26.2476 21.8401 25.8218C22.8679 25.3961 23.7464 24.6751 24.3645 23.7501C24.9826 22.8251 25.3125 21.7375 25.3125 20.625C25.3125 19.1332 24.7199 17.7024 23.665 16.6475C22.6101 15.5926 21.1793 15 19.6875 15Z" fill="black"/>
<path d="M21.1781 23.4375L18.75 21.0094V16.875H20.625V20.2406L22.5 22.1156L21.1781 23.4375Z" fill="black"/>
<path d="M26.25 5.625C26.25 5.12772 26.0525 4.65081 25.7008 4.29917C25.3492 3.94754 24.8723 3.75 24.375 3.75H20.625V1.875H18.75V3.75H11.25V1.875H9.375V3.75H5.625C5.12772 3.75 4.65081 3.94754 4.29917 4.29917C3.94754 4.65081 3.75 5.12772 3.75 5.625V24.375C3.75 24.8723 3.94754 25.3492 4.29917 25.7008C4.65081 26.0525 5.12772 26.25 5.625 26.25H9.375V24.375H5.625V5.625H9.375V7.5H11.25V5.625H18.75V7.5H20.625V5.625H24.375V11.25H26.25V5.625Z" fill="black"/>
</svg>
