<svg width="30" height="31" viewBox="0 0 30 31" fill="none" xmlns="http://www.w3.org/2000/svg">
<path d="M4.375 4.82593C4.375 4.74305 4.40792 4.66356 4.46653 4.60496C4.52513 4.54635 4.60462 4.51343 4.6875 4.51343H21.5625C21.6454 4.51343 21.7249 4.54635 21.7835 4.60496C21.8421 4.66356 21.875 4.74305 21.875 4.82593V17.3259C21.875 17.5746 21.9738 17.813 22.1496 17.9888C22.3254 18.1647 22.5639 18.2634 22.8125 18.2634C23.0611 18.2634 23.2996 18.1647 23.4754 17.9888C23.6512 17.813 23.75 17.5746 23.75 17.3259V4.82593C23.75 4.24577 23.5195 3.68937 23.1093 3.27913C22.6991 2.8689 22.1427 2.63843 21.5625 2.63843H4.6875C4.10734 2.63843 3.55094 2.8689 3.1407 3.27913C2.73047 3.68937 2.5 4.24577 2.5 4.82593V25.4509C2.5 26.6584 3.48 27.6384 4.6875 27.6384H13.4375C13.6861 27.6384 13.9246 27.5397 14.1004 27.3638C14.2762 27.188 14.375 26.9496 14.375 26.7009C14.375 26.4523 14.2762 26.2138 14.1004 26.038C13.9246 25.8622 13.6861 25.7634 13.4375 25.7634H4.6875C4.60462 25.7634 4.52513 25.7305 4.46653 25.6719C4.40792 25.6133 4.375 25.5338 4.375 25.4509V4.82593Z" fill="black"/>
<path d="M7.8125 8.88843C7.56386 8.88843 7.3254 8.9872 7.14959 9.16302C6.97377 9.33883 6.875 9.57729 6.875 9.82593C6.875 10.0746 6.97377 10.313 7.14959 10.4888C7.3254 10.6647 7.56386 10.7634 7.8125 10.7634H18.4375C18.6861 10.7634 18.9246 10.6647 19.1004 10.4888C19.2762 10.313 19.375 10.0746 19.375 9.82593C19.375 9.57729 19.2762 9.33883 19.1004 9.16302C18.9246 8.9872 18.6861 8.88843 18.4375 8.88843H7.8125ZM6.875 14.8259C6.875 14.5773 6.97377 14.3388 7.14959 14.163C7.3254 13.9872 7.56386 13.8884 7.8125 13.8884H13.4375C13.6861 13.8884 13.9246 13.9872 14.1004 14.163C14.2762 14.3388 14.375 14.5773 14.375 14.8259C14.375 15.0746 14.2762 15.313 14.1004 15.4888C13.9246 15.6647 13.6861 15.7634 13.4375 15.7634H7.8125C7.56386 15.7634 7.3254 15.6647 7.14959 15.4888C6.97377 15.313 6.875 15.0746 6.875 14.8259ZM27.225 20.4884C27.3171 20.4026 27.391 20.2991 27.4422 20.1841C27.4935 20.0691 27.521 19.945 27.5232 19.8191C27.5255 19.6932 27.5023 19.5682 27.4552 19.4514C27.408 19.3347 27.3378 19.2287 27.2488 19.1396C27.1598 19.0506 27.0537 18.9804 26.937 18.9333C26.8203 18.8861 26.6952 18.863 26.5693 18.8652C26.4435 18.8674 26.3193 18.895 26.2043 18.9462C26.0893 18.9974 25.9858 19.0713 25.9 19.1634L19.6875 25.3759L17.225 22.9134C17.1392 22.8213 17.0357 22.7474 16.9207 22.6962C16.8057 22.645 16.6815 22.6174 16.5557 22.6152C16.4298 22.613 16.3047 22.6361 16.188 22.6833C16.0713 22.7304 15.9652 22.8006 15.8762 22.8896C15.7872 22.9787 15.717 23.0847 15.6698 23.2014C15.6227 23.3182 15.5995 23.4432 15.6018 23.5691C15.604 23.695 15.6315 23.8191 15.6828 23.9341C15.734 24.0491 15.8079 24.1526 15.9 24.2384L19.025 27.3634C19.2008 27.539 19.4391 27.6376 19.6875 27.6376C19.9359 27.6376 20.1742 27.539 20.35 27.3634L27.225 20.4884Z" fill="black"/>
</svg>
